<?xml version="1.0" standalone="no"?>
<!DOCTYPE svg PUBLIC "-//W3C//DTD SVG 20010904//EN"
 "http://www.w3.org/TR/2001/REC-SVG-20010904/DTD/svg10.dtd">
<svg version="1.0" xmlns="http://www.w3.org/2000/svg"
 width="305.000000pt" height="305.000000pt" viewBox="0 0 305.000000 305.000000"
 preserveAspectRatio="xMidYMid meet">
<metadata>
Created by potrace 1.14, written by Peter Selinger 2001-2017
</metadata>
<g transform="translate(0.000000,305.000000) scale(0.100000,-0.100000)"
fill="#000000" stroke="none">
<path d="M1409 2993 c-8 -2 -22 -16 -31 -31 -14 -24 -14 -30 -2 -54 19 -35 56
-45 89 -24 36 24 37 70 3 99 -20 17 -29 19 -59 10z m39 -74 c-15 -10 -38 0
-38 16 0 20 24 25 37 7 10 -12 10 -18 1 -23z"/>
<path d="M1526 2977 c-15 -11 -15 -15 -3 -31 17 -23 47 -15 47 13 0 24 -23 33
-44 18z"/>
<path d="M1593 2935 c-48 -24 -103 -75 -146 -135 -12 -17 -19 -21 -23 -12 -13
30 -59 74 -98 94 -22 11 -43 21 -46 21 -3 0 -19 3 -37 7 -20 5 -38 3 -48 -4
-13 -10 -12 -14 7 -38 92 -110 145 -209 163 -305 2 -15 7 -40 11 -55 6 -28 -8
-39 -21 -18 -5 8 -11 7 -21 -1 -8 -6 -14 -8 -14 -5 0 4 -10 -2 -22 -14 -12
-11 -26 -20 -30 -20 -14 0 -31 -52 -32 -98 0 -23 1 -42 5 -42 3 0 5 -10 6 -22
0 -33 13 -205 19 -263 2 -27 7 -84 10 -125 14 -215 14 -214 59 -222 36 -7 49
13 96 147 23 66 46 125 51 132 5 7 7 17 3 23 -3 5 0 13 9 16 8 3 12 12 9 20
-3 8 0 21 7 29 7 8 10 15 7 15 -3 0 11 44 30 98 19 53 36 104 38 112 2 8 7 26
12 40 23 59 -5 122 -64 146 -39 17 -37 6 -17 118 3 16 17 53 30 82 13 29 24
56 24 59 0 12 91 147 120 179 17 17 30 39 30 49 0 26 -66 22 -127 -8z m40 -47
c-56 -61 -143 -223 -135 -252 2 -5 -5 -6 -14 -2 -13 5 -14 4 -6 -7 7 -8 9 -17
5 -21 -7 -7 -9 -16 -19 -81 -13 -84 -38 -72 -38 18 1 146 37 234 130 316 56
48 116 71 77 29z m-315 -52 c45 -28 56 -40 74 -86 11 -25 12 -45 5 -70 l-9
-35 -13 25 c-7 14 -11 28 -9 32 3 5 0 8 -5 8 -6 0 -11 6 -11 13 0 6 -18 40
-40 75 -22 34 -37 62 -35 62 3 0 22 -11 43 -24z m132 -406 c81 -11 113 -31
112 -72 0 -28 -5 -51 -12 -58 -3 -3 -14 -33 -25 -67 -21 -71 -30 -77 -99 -64
-26 5 -56 6 -67 4 -28 -8 -7 -38 28 -41 15 -1 37 -4 48 -6 11 -3 26 -5 34 -5
9 -1 12 -9 8 -23 -6 -29 -30 -91 -37 -98 -3 -3 -5 -12 -5 -20 1 -8 -3 -20 -7
-27 -5 -6 -11 -24 -14 -40 -7 -37 -55 -176 -65 -187 -14 -16 -18 -3 -24 79 -4
44 -8 94 -10 112 -2 29 0 31 31 35 19 2 34 0 34 -6 0 -5 3 -7 6 -4 12 13 -18
48 -41 48 -31 0 -37 11 -40 73 -2 29 -4 52 -5 52 -1 0 -3 33 -6 74 -2 41 -6
77 -9 79 -2 3 0 13 5 23 8 15 15 16 42 8 44 -12 85 -11 94 2 10 17 -7 27 -56
34 -76 10 -79 11 -86 18 -10 9 4 53 22 71 18 18 40 19 144 6z"/>
<path d="M2413 2941 c0 -11 5 -18 9 -15 4 3 5 11 1 19 -7 21 -12 19 -10 -4z"/>
<path d="M1769 2923 c-11 -13 -10 -17 6 -29 15 -11 20 -11 27 -1 20 31 -10 59
-33 30z"/>
<path d="M1946 2873 c-2 -3 -40 -6 -83 -7 -85 -2 -118 -15 -178 -68 -45 -39
-86 -117 -87 -163 0 -5 2 -25 5 -43 2 -18 1 -35 -4 -38 -16 -10 -10 -63 9 -73
9 -5 59 -7 109 -6 128 5 171 27 252 131 33 42 51 233 24 256 -16 13 -39 19
-47 11z m24 -59 c0 -7 -4 -15 -8 -18 -5 -3 -7 -27 -5 -54 5 -57 -11 -101 -53
-151 -36 -43 -114 -80 -157 -74 -43 5 -68 5 -94 -2 -16 -4 -23 -1 -23 9 0 8 4
17 8 20 5 3 7 26 5 52 -6 68 19 125 79 179 27 25 53 43 57 41 4 -3 13 -1 21 4
23 14 170 9 170 -6z"/>
<path d="M1902 2758 c-6 -8 -10 -24 -8 -35 5 -22 -21 -83 -35 -83 -5 0 -9 -9
-9 -21 0 -15 5 -20 22 -17 41 6 82 116 56 151 -12 16 -16 17 -26 5z"/>
<path d="M1103 2858 c-10 -17 -12 -178 -1 -172 7 5 12 -11 9 -29 -1 -5 3 -6 9
-2 5 3 10 3 10 -2 0 -4 14 -16 31 -25 26 -16 30 -23 29 -55 -3 -56 -1 -63 14
-63 16 0 26 21 26 58 0 15 6 47 14 72 7 25 11 56 8 70 -3 14 -6 37 -6 51 -1
15 -6 25 -12 22 -7 -2 -21 8 -34 24 -21 27 -68 63 -82 63 -4 0 -10 -6 -15 -12z
m97 -122 c0 -5 -6 -2 -13 9 -8 10 -19 15 -25 11 -15 -9 -15 -39 0 -54 6 -6 9
-14 6 -18 -11 -10 -27 32 -31 80 l-3 46 33 -32 c18 -17 33 -36 33 -42z"/>
<path d="M941 2750 c-92 -94 -112 -174 -64 -267 19 -38 20 -73 2 -73 -8 0 -13
18 -12 47 1 7 -2 11 -6 9 -3 -2 -20 18 -36 45 -17 26 -36 51 -42 53 -19 8 -93
-73 -85 -93 3 -9 20 -31 37 -49 42 -47 106 -145 101 -157 -2 -5 -10 -8 -17 -6
-8 2 -19 4 -26 5 -7 1 -15 4 -18 7 -10 11 -129 -12 -146 -27 -11 -9 -23 -13
-31 -8 -10 6 -10 4 1 -9 13 -17 13 -18 -11 -21 -7 0 -13 -8 -14 -16 -2 -36 -5
-41 -16 -34 -6 4 -8 3 -4 -4 3 -6 2 -13 -4 -17 -6 -4 -8 -11 -4 -16 10 -16 12
-59 3 -59 -5 0 -6 -6 -4 -12 2 -7 7 -24 9 -38 12 -63 18 -77 46 -123 16 -26
30 -50 30 -52 0 -6 45 -48 66 -63 66 -44 106 -52 197 -39 15 3 29 1 32 -3 2
-4 25 -6 51 -4 83 6 179 86 232 194 36 73 38 194 5 252 -29 49 -55 78 -70 78
-7 0 -13 4 -13 8 0 5 -6 9 -12 10 -7 0 -31 2 -53 5 -23 2 -63 -4 -93 -13 -58
-19 -66 -15 -67 35 0 17 -3 35 -7 40 -11 17 43 91 80 111 70 38 101 85 106
162 5 73 -40 202 -70 202 -8 0 -41 -27 -73 -60z m76 -13 c1 -7 6 -29 12 -50
20 -81 -2 -175 -46 -191 -12 -5 -14 -1 -9 16 3 13 6 31 6 40 0 12 5 16 18 12
14 -5 14 -4 2 5 -9 6 -13 23 -12 44 4 37 -10 55 -25 34 -11 -13 -23 -55 -29
-101 -7 -53 -29 -46 -39 13 -8 50 10 93 66 153 43 46 50 49 56 25z m-227 -242
c0 -1 16 -38 36 -81 39 -87 37 -87 -34 5 -38 49 -47 67 -38 76 9 10 36 10 36
0z m314 -275 c33 -11 75 -60 84 -100 5 -19 5 -111 0 -130 -6 -27 -32 -85 -43
-96 -5 -6 -23 -27 -38 -47 -16 -20 -50 -47 -77 -60 -42 -21 -56 -23 -96 -16
-28 5 -61 5 -80 0 -18 -5 -34 -7 -36 -6 -2 2 -16 6 -32 9 -58 11 -144 104
-178 193 -25 65 -10 203 22 203 6 0 9 4 6 9 -3 5 11 19 31 31 29 17 48 21 87
17 28 -3 62 -9 76 -15 34 -13 116 -8 158 11 37 15 63 15 116 -3z"/>
<path d="M1027 2206 c-7 -18 4 -32 30 -40 22 -7 55 -49 60 -76 12 -70 4 -104
-40 -173 -24 -40 -28 -50 -16 -57 18 -12 45 13 71 64 24 47 30 70 30 116 0 87
-29 137 -97 166 -27 11 -34 11 -38 0z"/>
<path d="M669 1933 c-4 -25 6 -47 36 -78 19 -19 37 -35 41 -35 3 0 12 -6 20
-14 13 -14 54 -11 54 3 0 10 -44 51 -56 51 -5 0 -22 18 -38 40 -27 36 -54 52
-57 33z"/>
<path d="M2051 2777 c-8 -22 -7 -104 3 -162 6 -40 36 -127 48 -142 12 -15 -12
-18 -27 -4 -17 16 -87 33 -96 24 -13 -13 2 -27 71 -61 73 -36 128 -82 158
-132 l21 -33 -38 -27 c-46 -34 -65 -77 -59 -134 7 -57 29 -85 100 -126 48 -28
59 -40 64 -67 5 -29 10 -33 35 -31 16 1 25 6 20 11 -14 14 12 67 36 73 13 4
23 10 23 15 0 5 6 9 14 9 26 0 75 58 81 97 3 21 8 46 10 56 2 9 -1 17 -6 17
-5 0 -9 9 -9 19 0 38 -98 101 -157 101 -7 0 -13 3 -13 6 0 18 36 63 71 88 38
26 46 45 23 53 -6 2 -27 -8 -48 -22 -20 -14 -40 -25 -44 -25 -4 0 -6 24 -5 53
2 71 -22 170 -52 215 -30 47 -75 98 -75 86 0 -5 -6 -2 -13 6 -13 16 -54 37
-100 51 -24 7 -29 5 -36 -14z m87 -57 c12 -11 27 -20 33 -20 7 0 9 -3 6 -7 -4
-3 3 -11 15 -17 35 -18 80 -98 84 -153 10 -111 11 -133 2 -133 -4 0 -9 7 -9
15 -2 22 -3 23 -28 98 -17 52 -27 67 -39 64 -10 -2 -16 -8 -15 -14 1 -6 4 -21
7 -34 2 -13 14 -50 25 -81 11 -32 17 -58 14 -58 -3 0 0 -7 7 -15 7 -8 8 -15 3
-15 -13 0 -85 104 -112 160 -26 57 -53 170 -40 170 6 0 7 6 2 13 -28 44 5 64
45 27z m267 -500 c34 -17 78 -77 68 -93 -4 -6 -8 -21 -9 -34 -3 -25 -26 -53
-43 -53 -6 0 -11 -4 -11 -9 0 -5 -10 -13 -22 -16 -13 -4 -33 -17 -46 -28 -14
-13 -26 -18 -30 -12 -10 15 -90 65 -102 65 -16 0 -41 66 -38 101 3 34 48 79
90 90 39 10 112 4 143 -11z"/>
<path d="M2110 2666 c0 -2 8 -10 18 -17 15 -13 16 -12 3 4 -13 16 -21 21 -21
13z"/>
<path d="M2305 2190 c-9 -15 14 -40 30 -34 17 7 69 -42 60 -55 -9 -15 15 -24
30 -11 28 24 1 74 -52 97 -39 16 -60 17 -68 3z"/>
<path d="M1983 2577 c-14 -22 -11 -37 6 -47 21 -11 41 5 41 31 0 20 -37 32
-47 16z"/>
<path d="M1265 2570 c-3 -5 4 -19 16 -31 17 -17 23 -19 30 -8 17 27 10 49 -15
49 -14 0 -27 -4 -31 -10z"/>
<path d="M1041 2459 c-37 -30 -24 -97 29 -148 27 -25 35 -28 61 -21 29 9 77
57 71 72 -1 5 2 8 7 8 4 0 6 12 3 26 -4 20 -2 25 8 19 7 -4 5 4 -5 18 -21 33
-39 41 -101 42 -35 1 -58 -4 -73 -16z m131 -42 c6 -11 5 -17 -2 -17 -5 0 -10
5 -10 10 0 13 -27 13 -35 0 -3 -6 6 -15 21 -20 l28 -11 -25 -25 c-31 -31 -52
-24 -75 23 -15 34 -15 37 0 49 24 17 86 11 98 -9z"/>
<path d="M1074 2404 c3 -9 6 -18 6 -21 0 -3 7 0 15 7 21 18 19 30 -6 30 -15 0
-19 -4 -15 -16z"/>
<path d="M1110 2370 c-12 -7 -12 -12 -2 -22 14 -14 35 1 24 19 -5 8 -13 9 -22
3z"/>
<path d="M1868 2465 c-1 -1 -21 -5 -43 -8 -107 -13 -212 -108 -218 -197 -1
-17 -5 -30 -8 -30 -5 0 -3 -41 5 -91 6 -38 31 -82 68 -120 145 -150 399 -77
443 126 11 50 12 79 2 93 -6 7 -7 15 -4 19 13 13 -55 119 -96 150 -36 27 -139
67 -149 58z m82 -67 c82 -36 124 -104 124 -201 0 -49 -4 -71 -14 -77 -8 -5
-11 -10 -7 -10 17 0 -29 -61 -63 -85 -50 -34 -78 -42 -140 -41 -142 3 -239
143 -198 287 11 40 61 100 97 119 61 31 142 35 201 8z"/>
<path d="M1794 2380 c-46 -24 -91 -64 -98 -87 -4 -12 -13 -27 -22 -33 -11 -10
-12 -16 -3 -26 6 -8 7 -14 2 -14 -15 0 -7 -52 17 -102 43 -93 165 -137 255
-91 33 17 75 58 75 74 0 5 4 9 8 9 9 0 11 9 15 55 1 14 6 25 10 25 5 0 5 5 2
10 -4 6 -9 23 -11 38 -3 15 -12 37 -20 50 -8 12 -11 22 -8 22 4 0 -10 13 -31
30 -60 47 -143 65 -191 40z m140 -54 l26 -13 -36 -32 c-21 -17 -40 -31 -44
-31 -7 0 -20 57 -20 87 0 14 36 9 74 -11z m-118 -9 c1 -7 5 -29 9 -51 8 -38 7
-38 -16 -25 -13 7 -37 15 -54 19 l-30 7 39 37 c37 36 48 39 52 13z m187 -91
c13 -52 0 -62 -52 -39 -22 10 -41 21 -41 25 0 4 14 15 30 25 17 9 30 21 30 26
0 24 26 -4 33 -37z m-230 -17 c20 -7 37 -16 37 -20 0 -4 -15 -18 -34 -33 -34
-25 -58 -34 -54 -18 0 4 -2 15 -7 25 -4 10 -2 23 4 30 8 10 7 17 -2 27 -13 14
-14 14 56 -11z m168 -61 c36 -10 55 -38 27 -38 -6 0 -8 -3 -5 -7 4 -3 -5 -15
-20 -25 -26 -17 -54 -25 -40 -12 3 3 -1 23 -8 44 -19 53 -14 56 46 38z m-90
-20 c0 -13 3 -35 5 -50 3 -16 0 -28 -6 -28 -18 0 -80 29 -80 37 0 12 54 62 68
62 6 1 12 -9 13 -21z"/>
<path d="M648 2392 c-11 -2 -18 -13 -18 -27 0 -32 29 -64 67 -71 25 -5 33 -2
42 15 10 19 5 46 -14 69 -6 7 -62 18 -77 14z"/>
<path d="M2413 2339 c-13 -13 -6 -46 12 -53 7 -2 21 1 30 8 15 11 16 15 4 34
-15 24 -29 28 -46 11z"/>
<path d="M1564 2071 c3 -5 -3 -11 -14 -14 -13 -3 -18 -11 -14 -20 9 -24 37
-30 51 -12 14 20 8 41 -13 49 -8 3 -13 2 -10 -3z"/>
<path d="M1614 1977 c-55 -30 -76 -47 -97 -79 -18 -30 -22 -84 -7 -108 12 -19
-12 -45 -62 -71 -44 -23 -52 -33 -35 -48 11 -8 30 -1 81 30 45 27 76 39 92 36
13 -2 22 -1 19 2 -2 4 11 15 30 25 18 10 39 31 45 46 20 47 5 191 -19 190 -3
-1 -24 -11 -47 -23z m32 -61 c11 -45 -6 -110 -33 -120 -12 -5 -11 0 4 27 36
60 0 82 -37 22 -25 -41 -45 -36 -36 7 6 30 60 88 83 88 7 0 15 -11 19 -24z"/>
<path d="M2050 1998 c0 -2 -3 -25 -6 -53 -4 -39 -1 -57 15 -82 12 -18 28 -33
36 -33 10 0 15 -10 15 -30 0 -43 -17 -73 -53 -90 -22 -10 -40 -31 -57 -67 -28
-58 -74 -113 -117 -138 -72 -42 -113 -160 -83 -237 31 -78 108 -130 193 -129
46 0 127 34 127 53 0 4 6 8 13 8 17 1 49 74 52 119 1 20 -2 50 -7 66 -24 78
-29 149 -15 185 15 39 15 109 0 114 -7 3 -13 11 -13 19 0 14 53 61 99 87 14 8
29 20 34 25 4 6 11 4 17 -5 21 -32 9 10 -16 54 l-26 47 -27 -17 c-14 -9 -39
-28 -55 -43 -16 -14 -26 -20 -22 -13 29 51 11 107 -47 142 -27 17 -56 26 -57
18z m61 -74 c17 -21 19 -54 3 -54 -16 0 -24 13 -30 45 -5 28 7 33 27 9z m139
-78 c0 -3 -4 -8 -10 -11 -5 -3 -10 -1 -10 4 0 6 5 11 10 11 6 0 10 -2 10 -4z
m-130 -181 c13 -15 9 -72 -9 -115 -7 -18 -10 -20 -10 -7 -1 15 -5 16 -21 7
-11 -6 -20 -18 -20 -26 0 -8 -5 -12 -11 -9 -7 5 -8 1 -1 -11 14 -27 34 -122
35 -167 1 -52 -38 -91 -91 -93 -49 -1 -67 -11 -52 -29 12 -15 113 -11 118 5 2
6 9 10 16 10 7 0 22 17 33 38 23 39 26 110 7 147 -14 26 -18 105 -6 105 5 0 8
-10 7 -22 -1 -13 5 -52 14 -88 19 -78 19 -94 -1 -141 -14 -32 -78 -92 -78 -73
0 5 -5 3 -12 -4 -14 -14 -77 -16 -110 -3 -63 24 -107 107 -93 177 6 36 52 91
110 134 24 18 85 94 85 106 0 5 9 24 20 42 21 34 50 42 70 17z"/>
<path d="M1996 1512 c-3 -5 1 -9 9 -9 8 0 12 4 9 9 -3 4 -7 8 -9 8 -2 0 -6 -4
-9 -8z"/>
<path d="M2030 1491 c0 -6 4 -13 10 -16 6 -3 7 1 4 9 -7 18 -14 21 -14 7z"/>
<path d="M2427 1956 c-41 -23 -62 -63 -55 -101 3 -14 1 -28 -3 -31 -14 -8 -10
-21 7 -28 9 -4 22 -2 29 4 7 6 24 13 36 15 27 5 58 39 60 64 1 9 2 23 3 31 3
29 -10 63 -25 65 -8 2 -31 -7 -52 -19z m37 -51 c-7 -17 -20 -20 -28 -6 -4 5 0
12 6 14 23 9 28 7 22 -8z"/>
<path d="M1752 1906 c-27 -31 -29 -41 -23 -92 0 -6 13 -16 27 -23 30 -13 50
-2 65 37 10 25 -14 92 -33 92 -5 0 -6 5 -3 10 13 21 -4 9 -33 -24z m28 -62 c0
-8 -5 -12 -10 -9 -6 4 -8 11 -5 16 9 14 15 11 15 -7z"/>
<path d="M1935 1903 c-60 -11 -63 -13 -69 -45 -3 -18 -15 -47 -25 -65 -19 -29
-23 -31 -68 -28 -58 3 -117 -20 -135 -53 -23 -43 -131 -84 -219 -84 -58 1
-118 16 -184 47 -62 28 -77 31 -140 21 -89 -13 -154 -80 -157 -161 -1 -20 -8
-40 -17 -46 -14 -9 -14 -10 2 -5 15 5 18 0 17 -29 0 -6 7 -17 56 -73 42 -49
133 -96 213 -110 184 -33 444 50 594 189 38 35 75 76 83 91 16 32 18 101 4
129 -9 15 -6 24 12 43 46 47 64 73 81 114 24 61 13 77 -48 65z m5 -51 c0 -11
-58 -102 -65 -102 -4 0 -3 6 2 13 4 6 8 14 9 17 1 3 5 15 9 27 4 12 6 25 5 29
-2 7 20 24 33 24 4 0 7 -4 7 -8z m-150 -136 c54 -18 81 -72 66 -131 -7 -29
-23 -34 -23 -7 0 34 -3 42 -17 42 -7 0 -19 -6 -25 -14 -7 -8 -25 -19 -41 -25
-30 -10 -30 -10 -25 25 2 19 7 39 10 44 3 5 -8 18 -25 28 -27 17 -29 21 -15
32 8 7 15 9 15 6 0 -4 8 -3 17 2 18 10 24 10 63 -2z m-652 -69 c7 -5 12 -3 12
3 0 13 24 7 86 -21 128 -57 254 -55 375 7 59 30 75 23 71 -31 -5 -49 14 -78
44 -71 13 3 36 9 50 12 46 12 26 -35 -38 -86 -150 -121 -373 -179 -541 -141
-47 11 -126 48 -158 73 -50 41 -71 134 -44 192 15 32 55 68 55 51 0 -4 6 0 14
8 15 15 52 17 74 4z"/>
<path d="M1039 1518 c-12 -40 -1 -70 40 -106 31 -26 118 -61 175 -69 23 -3 43
-6 46 -6 3 -1 34 2 70 7 74 8 165 34 233 66 41 19 45 24 36 42 -7 13 -14 16
-22 10 -18 -13 -94 -42 -163 -61 -38 -11 -89 -16 -140 -15 -90 2 -108 6 -161
30 -39 19 -114 90 -105 99 3 3 2 5 -1 5 -4 0 -7 -1 -8 -2z"/>
<path d="M1176 1819 c-27 -32 -29 -40 -20 -76 13 -46 84 -20 90 33 3 29 -18
74 -35 74 -5 0 -21 -14 -35 -31z"/>
<path d="M1990 1811 c-23 -44 -5 -81 38 -81 46 0 67 53 34 83 -25 23 -59 21
-72 -2z"/>
<path d="M2310 1779 c0 -5 -3 -8 -7 -7 -5 1 -18 -3 -31 -10 -12 -7 -28 -10
-34 -6 -7 4 -8 3 -4 -5 4 -6 2 -19 -5 -27 -10 -12 -14 -12 -20 -2 -6 9 -9 9
-9 1 0 -6 4 -14 10 -18 5 -3 6 -15 1 -28 -11 -29 -5 -64 18 -101 47 -75 147
-83 211 -17 30 31 34 44 33 93 -2 46 -27 90 -62 110 -32 19 -101 30 -101 17z
m80 -54 c18 -9 32 -26 36 -43 3 -15 7 -32 9 -39 7 -20 -39 -76 -68 -84 -64
-17 -124 34 -114 97 5 32 31 69 48 69 4 0 11 3 15 8 12 11 43 8 74 -8z"/>
<path d="M2335 1710 c-8 -13 3 -30 20 -30 7 0 17 -9 20 -20 12 -38 41 -22 35
19 -4 30 -61 54 -75 31z"/>
<path d="M619 1746 c-5 -24 -3 -34 11 -56 8 -14 28 -37 43 -51 25 -23 26 -27
12 -39 -32 -26 -8 -128 41 -172 26 -23 76 -41 83 -30 3 5 16 14 28 21 25 13
57 68 67 118 9 41 -15 79 -55 88 -28 6 -29 8 -15 24 34 38 11 61 -29 30 l-26
-22 -15 21 c-22 32 -66 60 -107 67 -20 4 -38 4 -38 1z m91 -71 c11 -13 10 -14
-4 -9 -9 3 -16 10 -16 15 0 13 6 11 20 -6z m118 -84 c10 -1 9 -5 -3 -18 -15
-15 -15 -17 -1 -25 21 -12 36 -2 30 20 -5 15 -4 15 6 -1 9 -14 7 -27 -11 -62
-21 -41 -59 -75 -45 -40 3 8 1 15 -5 15 -5 0 -14 11 -19 25 -11 30 -30 33 -30
5 0 -11 6 -19 13 -17 6 1 11 -4 9 -12 -1 -7 3 -19 9 -27 19 -23 -6 -16 -28 9
-28 30 -43 61 -43 88 0 22 1 22 13 4 16 -20 39 -12 31 10 -4 8 -10 12 -15 9
-5 -3 -6 1 -4 8 5 12 31 15 93 9z"/>
<path d="M773 1565 c-3 -9 -3 -18 0 -21 9 -9 27 6 27 22 0 19 -19 18 -27 -1z"/>
<path d="M796 1522 c-9 -14 9 -31 23 -23 7 5 10 14 7 20 -8 13 -23 14 -30 3z"/>
<path d="M1933 1697 c-17 -22 -9 -42 17 -42 31 0 39 30 12 44 -15 8 -22 7 -29
-2z"/>
<path d="M901 1682 c-7 -13 -6 -23 1 -30 28 -28 63 3 38 33 -16 20 -27 19 -39
-3z"/>
<path d="M2209 1506 c-58 -28 -19 -158 42 -143 29 7 75 45 72 58 -2 5 1 9 6 9
6 0 6 11 0 29 -14 38 -83 66 -120 47z m72 -58 c7 -13 4 -21 -13 -32 -26 -19
-48 -5 -48 30 0 19 5 23 26 22 14 -2 30 -10 35 -20z"/>
<path d="M884 1452 c4 -6 2 -13 -4 -17 -17 -11 -8 -65 11 -65 57 0 69 49 18
76 -17 8 -28 11 -25 6z"/>
<path d="M1707 1355 c-61 -17 -73 -27 -82 -72 -7 -40 5 -55 43 -48 12 2 22 -1
22 -6 0 -16 66 54 78 83 8 19 8 30 -1 41 -10 12 -19 13 -60 2z m-4 -67 c-24
-24 -37 -21 -27 6 3 9 16 16 27 16 l21 0 -21 -22z"/>
<path d="M850 1358 c0 -15 60 -131 85 -164 26 -34 91 -74 120 -74 8 0 15 -3
15 -7 0 -5 19 -9 43 -10 55 -2 73 -6 128 -31 60 -28 92 -32 96 -11 3 10 -15
23 -58 40 -41 18 -66 35 -78 54 -17 30 -37 58 -58 80 -9 9 -9 15 0 25 9 10 9
11 -1 5 -8 -4 -25 1 -43 14 -15 11 -31 21 -35 21 -3 0 -20 6 -37 14 -46 21
-97 33 -132 31 -16 -1 -33 3 -37 9 -4 6 -8 8 -8 4z m121 -69 c62 -20 103 -42
134 -70 37 -35 22 -38 -26 -5 -37 26 -64 22 -53 -8 3 -9 18 -23 33 -32 25 -15
21 -15 -29 -3 -28 8 -100 92 -100 118 0 13 -1 13 41 0z"/>
<path d="M1438 1243 c-48 -30 -65 -108 -39 -172 14 -33 92 -88 110 -76 6 3 20
1 32 -6 12 -6 19 -7 16 -2 -3 4 12 18 32 31 77 49 91 168 26 222 -26 22 -144
23 -177 3z m86 -39 c9 -8 17 -20 17 -25 1 -5 3 -13 4 -19 1 -5 3 -17 4 -25 0
-8 11 -15 22 -15 20 0 21 4 15 47 -6 43 -5 46 10 32 8 -9 16 -30 16 -47 1 -38
-33 -97 -55 -96 -10 1 -17 -2 -17 -7 0 -4 -16 -7 -36 -5 -70 5 -101 100 -49
151 28 29 47 31 69 9z"/>
<path d="M1230 1230 c-30 -18 35 -110 78 -110 23 0 47 16 48 32 0 17 -24 68
-34 68 -4 0 -23 4 -43 9 -21 5 -42 5 -49 1z m75 -58 c-3 -3 -11 0 -18 7 -9 10
-8 11 6 5 10 -3 15 -9 12 -12z"/>
<path d="M670 1226 c0 -2 8 -10 18 -17 15 -13 16 -12 3 4 -13 16 -21 21 -21
13z"/>
<path d="M1708 1205 c-48 -26 -58 -107 -18 -141 68 -57 160 -22 160 60 0 41
-20 72 -54 84 -41 15 -55 15 -88 -3z m80 -41 c12 -8 22 -23 21 -32 0 -13 -2
-12 -9 4 -10 26 -38 38 -55 24 -11 -9 -9 -16 8 -33 12 -13 30 -21 40 -19 24 6
21 -5 -8 -24 -23 -15 -27 -15 -50 0 -32 21 -33 59 -3 80 12 9 25 16 28 16 3 0
16 -7 28 -16z"/>
<path d="M1460 950 c-8 -5 -10 -10 -5 -10 6 0 17 5 25 10 8 5 11 10 5 10 -5 0
-17 -5 -25 -10z"/>
<path d="M2510 916 c0 -2 7 -7 16 -10 8 -3 12 -2 9 4 -6 10 -25 14 -25 6z"/>
<path d="M2510 860 c17 -11 10 -12 -71 -14 -44 -1 -99 -21 -99 -36 0 -13 28
-31 33 -23 3 5 34 8 69 8 67 -2 108 15 104 41 -3 16 -24 34 -41 34 -5 0 -3 -5
5 -10z"/>
<path d="M1456 731 c-19 -21 -21 -38 -12 -96 4 -22 9 -56 12 -75 8 -60 12 -79
20 -91 5 -8 3 -9 -7 -4 -12 8 -12 6 0 -8 7 -9 11 -17 8 -17 -2 0 1 -26 8 -58
6 -32 11 -79 9 -105 -2 -55 9 -60 55 -22 29 25 30 29 26 88 -5 67 -13 147 -20
187 -2 14 -7 52 -11 84 -3 33 -7 67 -9 75 -1 9 2 21 7 27 5 8 2 14 -9 19 -39
15 -61 14 -77 -4z"/>
<path d="M2412 726 c-6 -14 -10 -33 -8 -43 2 -10 7 -38 11 -63 3 -25 9 -58 12
-75 8 -49 11 -67 17 -120 4 -27 11 -64 15 -80 4 -17 6 -47 4 -67 -5 -50 11
-56 51 -16 26 26 33 41 31 63 -12 131 -17 179 -20 197 -9 47 -19 136 -19 173
1 45 -8 55 -52 55 -23 0 -34 -6 -42 -24z"/>
<path d="M2035 732 c-43 -10 -67 -38 -43 -53 7 -5 13 -12 14 -16 0 -4 3 -21 7
-38 4 -16 9 -47 11 -67 2 -21 7 -41 10 -46 2 -4 1 -14 -4 -22 -5 -9 -5 -19 2
-27 6 -7 7 -13 3 -13 -4 0 -3 -6 3 -12 5 -7 13 -30 16 -51 9 -56 32 -104 56
-117 33 -18 170 -16 170 2 0 4 5 8 11 8 34 0 59 60 47 114 -12 53 -13 106 -5
132 6 17 3 23 -15 28 -65 17 -93 -7 -83 -72 8 -57 13 -80 20 -101 14 -45 -82
-74 -104 -32 -12 22 -23 102 -25 176 -1 28 -4 52 -8 55 -4 3 -10 28 -13 55
-10 81 -28 106 -70 97z"/>
<path d="M1040 712 c-22 -18 -22 -19 -6 -44 9 -14 16 -30 15 -34 -1 -5 0 -11
1 -14 4 -12 11 -48 15 -85 3 -22 7 -51 10 -65 5 -23 14 -74 20 -111 7 -39 35
-88 54 -94 12 -3 21 -10 21 -14 0 -14 101 -1 146 18 56 25 68 54 58 136 -9 70
-9 94 0 116 10 24 -43 41 -75 25 -27 -13 -30 -43 -15 -148 8 -55 7 -58 -17
-69 -14 -6 -37 -9 -51 -5 -28 7 -40 39 -51 136 -3 30 -8 67 -11 81 -2 15 -6
47 -9 70 -9 77 -16 99 -35 109 -27 14 -45 12 -70 -8z"/>
<path d="M1285 710 c-3 -5 -10 -8 -15 -5 -4 3 -10 -5 -13 -16 -4 -15 -11 -20
-22 -15 -9 3 -13 2 -10 -4 3 -6 12 -10 18 -10 7 0 17 -10 22 -22 23 -52 98
-24 79 29 -11 31 -49 59 -59 43z"/>
<path d="M2242 713 c-40 -16 -33 -76 11 -92 51 -20 76 34 37 77 -21 23 -26 24
-48 15z"/>
<path d="M1748 578 c-21 -7 -28 -16 -28 -37 0 -32 18 -59 79 -123 62 -65 67
-75 44 -100 -59 -66 -163 -67 -163 -2 0 16 -4 22 -14 18 -22 -8 -39 -59 -31
-93 13 -61 82 -74 170 -30 50 25 124 92 126 116 1 7 2 23 3 36 2 26 -16 53
-79 121 -41 44 -49 58 -46 78 2 16 -35 25 -61 16z"/>
<path d="M738 515 c-9 -19 -8 -29 6 -50 21 -33 63 -34 75 -2 22 58 -55 109
-81 52z"/>
<path d="M871 504 c-21 -15 -22 -21 -16 -68 4 -28 8 -65 10 -81 1 -17 7 -41
14 -53 6 -12 8 -22 3 -22 -5 0 -7 -13 -4 -29 6 -41 -35 -71 -89 -66 -91 9
-139 59 -139 143 0 50 11 78 44 116 14 16 26 30 26 32 0 5 -57 -14 -86 -29
-16 -8 -40 -27 -54 -42 -22 -23 -25 -36 -25 -94 0 -59 4 -72 28 -105 16 -20
44 -45 63 -53 19 -9 34 -19 34 -22 0 -3 28 -5 63 -4 137 3 172 19 211 95 19
37 22 55 16 86 -4 22 -6 52 -4 66 1 14 -1 26 -5 26 -4 0 -8 20 -10 45 -1 30 2
45 10 45 7 0 4 7 -7 15 -25 19 -54 19 -83 -1z"/>
<path d="M2395 401 c-3 -5 -2 -12 3 -15 5 -3 9 1 9 9 0 17 -3 19 -12 6z"/>
<path d="M730 230 c0 -5 5 -10 11 -10 5 0 7 5 4 10 -3 6 -8 10 -11 10 -2 0 -4
-4 -4 -10z"/>
<path d="M590 51 c0 -6 4 -13 10 -16 6 -3 7 1 4 9 -7 18 -14 21 -14 7z"/>
</g>
</svg>
